<svg xmlns="http://www.w3.org/2000/svg" style="position:absolute; height:0; width:0;">
    <symbol id="site-logo" viewBox="0 0 48 56"><g clip-path="url(#clip0_305_1192)"><path d="M25.2921 48.758V55.6865C25.2921 55.8152 25.3949 55.9183 25.5232 55.8925C27.141 55.7638 28.7073 55.4805 30.1965 54.9911C30.2736 54.9653 30.3506 54.888 30.3506 54.7851V37.7855C30.3506 37.6824 30.2736 37.5795 30.171 37.5795C28.656 37.3991 27.0895 37.2962 25.5232 37.2447C25.3949 37.2447 25.2921 37.3476 25.2921 37.4507V43.5808H22.5703V37.4507C22.5703 37.3218 22.4675 37.2189 22.3391 37.2447C20.7471 37.2962 19.2065 37.3991 17.6915 37.5536C17.5887 37.5536 17.5117 37.6568 17.5117 37.7597V54.8107C17.5117 54.9139 17.5631 54.9911 17.6658 55.0168C19.1551 55.4546 20.7216 55.7638 22.3391 55.8669C22.4675 55.8669 22.5703 55.7638 22.5703 55.6609V48.7063H25.2921V48.758Z" fill="#3D775A"/><path d="M16.0748 37.8111C14.1489 38.0944 12.2744 38.455 10.5283 38.9445C10.477 38.9701 10.4256 38.996 10.4 39.0732L8.21734 43.6063H7.85785V40.0519C7.85785 39.8975 7.70378 39.7944 7.57539 39.8459C6.29148 40.3096 5.08462 40.7989 3.95479 41.3655C3.72369 41.4686 3.51828 41.5974 3.31285 41.7005C3.21013 41.7519 3.15879 41.8807 3.23582 41.9838C4.90488 45.1518 6.93345 47.9078 9.29581 50.123C9.39853 50.2259 9.57827 50.2001 9.62963 50.0714L10.9392 47.4185H11.273V51.6941C11.273 51.7714 11.2987 51.8228 11.35 51.8743C12.788 52.9561 14.3544 53.8318 16.0234 54.5015C16.1518 54.553 16.3059 54.4501 16.3059 54.2955V38.0171C16.3316 37.8884 16.2032 37.7854 16.0748 37.8111Z" fill="#3D775A"/><path d="M42.6251 41.1337C42.1115 40.7989 40.3654 39.8202 39.2869 39.4338C39.1843 39.408 39.0815 39.4338 39.0302 39.5367C38.645 40.3352 37.0529 43.6063 37.0529 43.6063H36.6935L36.6679 38.9187C36.6679 38.8156 36.5909 38.7383 36.5138 38.7126C35.0244 38.3521 33.4581 38.0429 31.8661 37.8111C31.7377 37.7854 31.6094 37.8884 31.6094 38.0171V54.1924C31.6094 54.347 31.7633 54.4501 31.9174 54.3986C33.5864 53.7031 35.1529 52.8017 36.5909 51.7197C36.6422 51.6683 36.6679 51.6168 36.6679 51.5395V48.7577C37.5923 48.6804 38.5679 49.041 39.1328 49.582C40.237 48.4744 41.3925 47.1608 42.3426 45.8215C42.4197 45.7443 42.3939 45.6155 42.3169 45.5382C41.9831 45.2549 41.5724 44.9458 41.1614 44.7139L42.7279 41.4172C42.7792 41.3141 42.7279 41.211 42.6251 41.1337Z" fill="#3D775A"/><path d="M32.2774 1.95752C32.4057 1.85449 32.3799 1.64844 32.2261 1.57117C30.4284 0.798463 28.5027 0.257569 26.5254 0C24.4713 6.72254 24.4455 14.7072 24.1631 35.0293C24.3429 35.0293 24.5483 35.0293 24.728 35.0293C25.3956 19.3434 25.601 6.56799 32.2774 1.95752Z" fill="#1D2126"/><path d="M28.6564 19.9615C31.1215 12.492 35.0758 8.80871 40.9561 8.55115C41.1357 8.55115 41.2128 8.31934 41.11 8.19056C39.6721 6.4906 38.0545 5.02245 36.3083 3.78613C30.6592 5.74365 28.1683 10.6375 26.7561 19.5751C26.1142 23.7477 25.6264 28.9505 25.3438 35.0549C25.5236 35.0549 25.729 35.0549 25.9088 35.0808C26.2168 30.1868 27.3723 23.8764 28.6564 19.9615Z" fill="#1D2126"/><path d="M29.8885 25.834C34.4334 16.9737 42.4194 15.7889 46.836 20.1675C46.9899 20.3221 47.2468 20.1675 47.1955 19.9615C46.4765 17.1282 45.3978 14.4753 43.9857 12.0799C33.8428 9.27239 27.6803 20.9144 26.499 35.1322C26.6787 35.1322 26.8843 35.1581 27.0639 35.1581C27.6288 31.243 28.1937 29.1051 29.8885 25.834Z" fill="#1D2126"/><path d="M47.6587 24.8038C43.8327 20.2447 36.6943 19.0857 31.7898 25.3446C30.0179 27.5854 28.2976 30.8824 27.6299 35.1838C27.8353 35.1838 28.0151 35.2095 28.2205 35.2095C29.2477 30.9082 31.9182 28.6415 34.4346 27.8945C40.2378 26.1174 46.0411 30.3672 46.5544 35.3126C46.5802 35.5186 46.9139 35.4928 46.9654 35.2867C47.5046 32.9428 47.8127 30.4703 47.8127 27.8945C47.787 26.8386 47.7357 25.8083 47.6587 24.8038Z" fill="#1D2126"/><path d="M21.2618 0.0258789C19.2846 0.283448 17.3587 0.798584 15.5613 1.59705C15.4072 1.67432 15.3816 1.88037 15.5099 1.9834C22.1861 6.56812 22.3917 19.3435 23.0336 35.0552C23.2133 35.0552 23.4187 35.0552 23.5985 35.0552C23.3161 14.7331 23.3161 6.74841 21.2618 0.0258789Z" fill="#1D2126"/><path d="M21.0298 19.6005C19.6432 10.6628 17.1268 5.76904 11.4777 3.81152C9.73155 5.04784 8.11385 6.51599 6.67589 8.21593C6.57317 8.34473 6.65022 8.55078 6.82996 8.57655C12.7102 8.80836 16.6903 12.4916 19.1554 19.9611C20.4393 23.8504 21.5691 30.1867 21.9028 35.0804C22.0827 35.0804 22.2881 35.0545 22.4677 35.0545C22.1597 28.9759 21.6974 23.7731 21.0298 19.6005Z" fill="#1D2126"/><path d="M3.82579 12.0799C2.4135 14.4495 1.33503 17.1025 0.616055 19.9615C0.564699 20.1676 0.821478 20.3221 0.975546 20.1676C5.41782 15.8147 13.378 16.9995 17.923 25.8342C19.592 29.0795 20.1826 31.2172 20.7475 35.1322C20.9274 35.1322 21.1328 35.1066 21.3124 35.1066C20.1313 20.9144 13.9686 9.27242 3.82579 12.0799Z" fill="#1D2126"/><path d="M16.023 25.3446C11.1185 19.0857 3.9544 20.2447 0.154067 24.8038C0.0513559 25.8083 0 26.8386 0 27.8945C0 30.4445 0.282456 32.9172 0.847371 35.2867C0.898727 35.4928 1.23254 35.5186 1.25822 35.3126C1.95152 30.4445 7.16413 26.3491 13.3782 27.8945C15.9203 28.5128 18.5395 30.9082 19.5922 35.2095C19.7977 35.1838 19.9774 35.1838 20.1828 35.1838C19.5152 30.8824 17.7948 27.5854 16.023 25.3446Z" fill="#1D2126"/></g><defs><clipPath id="clip0_305_1192"><rect width="48" height="56" fill="white"/></clipPath></defs></symbol>
    
    <symbol id="site-logo2" viewBox="0 0 48 56"><g clip-path="url(#clip0_305_1192)"><path d="M25.2921 48.758V55.6865C25.2921 55.8152 25.3949 55.9183 25.5232 55.8925C27.141 55.7638 28.7073 55.4805 30.1965 54.9911C30.2736 54.9653 30.3506 54.888 30.3506 54.7851V37.7855C30.3506 37.6824 30.2736 37.5795 30.171 37.5795C28.656 37.3991 27.0895 37.2962 25.5232 37.2447C25.3949 37.2447 25.2921 37.3476 25.2921 37.4507V43.5808H22.5703V37.4507C22.5703 37.3218 22.4675 37.2189 22.3391 37.2447C20.7471 37.2962 19.2065 37.3991 17.6915 37.5536C17.5887 37.5536 17.5117 37.6568 17.5117 37.7597V54.8107C17.5117 54.9139 17.5631 54.9911 17.6658 55.0168C19.1551 55.4546 20.7216 55.7638 22.3391 55.8669C22.4675 55.8669 22.5703 55.7638 22.5703 55.6609V48.7063H25.2921V48.758Z" fill="#3D775A"/><path d="M16.0748 37.8111C14.1489 38.0944 12.2744 38.455 10.5283 38.9445C10.477 38.9701 10.4256 38.996 10.4 39.0732L8.21734 43.6063H7.85785V40.0519C7.85785 39.8975 7.70378 39.7944 7.57539 39.8459C6.29148 40.3096 5.08462 40.7989 3.95479 41.3655C3.72369 41.4686 3.51828 41.5974 3.31285 41.7005C3.21013 41.7519 3.15879 41.8807 3.23582 41.9838C4.90488 45.1518 6.93345 47.9078 9.29581 50.123C9.39853 50.2259 9.57827 50.2001 9.62963 50.0714L10.9392 47.4185H11.273V51.6941C11.273 51.7714 11.2987 51.8228 11.35 51.8743C12.788 52.9561 14.3544 53.8318 16.0234 54.5015C16.1518 54.553 16.3059 54.4501 16.3059 54.2955V38.0171C16.3316 37.8884 16.2032 37.7854 16.0748 37.8111Z" fill="#3D775A"/><path d="M42.6251 41.1337C42.1115 40.7989 40.3654 39.8202 39.2869 39.4338C39.1843 39.408 39.0815 39.4338 39.0302 39.5367C38.645 40.3352 37.0529 43.6063 37.0529 43.6063H36.6935L36.6679 38.9187C36.6679 38.8156 36.5909 38.7383 36.5138 38.7126C35.0244 38.3521 33.4581 38.0429 31.8661 37.8111C31.7377 37.7854 31.6094 37.8884 31.6094 38.0171V54.1924C31.6094 54.347 31.7633 54.4501 31.9174 54.3986C33.5864 53.7031 35.1529 52.8017 36.5909 51.7197C36.6422 51.6683 36.6679 51.6168 36.6679 51.5395V48.7577C37.5923 48.6804 38.5679 49.041 39.1328 49.582C40.237 48.4744 41.3925 47.1608 42.3426 45.8215C42.4197 45.7443 42.3939 45.6155 42.3169 45.5382C41.9831 45.2549 41.5724 44.9458 41.1614 44.7139L42.7279 41.4172C42.7792 41.3141 42.7279 41.211 42.6251 41.1337Z" fill="#3D775A"/><path d="M32.2774 1.95752C32.4057 1.85449 32.3799 1.64844 32.2261 1.57117C30.4284 0.798463 28.5027 0.257569 26.5254 0C24.4713 6.72254 24.4455 14.7072 24.1631 35.0293C24.3429 35.0293 24.5483 35.0293 24.728 35.0293C25.3956 19.3434 25.601 6.56799 32.2774 1.95752Z" fill="#fff"/><path d="M28.6564 19.9615C31.1215 12.492 35.0758 8.80871 40.9561 8.55115C41.1357 8.55115 41.2128 8.31934 41.11 8.19056C39.6721 6.4906 38.0545 5.02245 36.3083 3.78613C30.6592 5.74365 28.1683 10.6375 26.7561 19.5751C26.1142 23.7477 25.6264 28.9505 25.3438 35.0549C25.5236 35.0549 25.729 35.0549 25.9088 35.0808C26.2168 30.1868 27.3723 23.8764 28.6564 19.9615Z" fill="#fff"/><path d="M29.8885 25.834C34.4334 16.9737 42.4194 15.7889 46.836 20.1675C46.9899 20.3221 47.2468 20.1675 47.1955 19.9615C46.4765 17.1282 45.3978 14.4753 43.9857 12.0799C33.8428 9.27239 27.6803 20.9144 26.499 35.1322C26.6787 35.1322 26.8843 35.1581 27.0639 35.1581C27.6288 31.243 28.1937 29.1051 29.8885 25.834Z" fill="#fff"/><path d="M47.6587 24.8038C43.8327 20.2447 36.6943 19.0857 31.7898 25.3446C30.0179 27.5854 28.2976 30.8824 27.6299 35.1838C27.8353 35.1838 28.0151 35.2095 28.2205 35.2095C29.2477 30.9082 31.9182 28.6415 34.4346 27.8945C40.2378 26.1174 46.0411 30.3672 46.5544 35.3126C46.5802 35.5186 46.9139 35.4928 46.9654 35.2867C47.5046 32.9428 47.8127 30.4703 47.8127 27.8945C47.787 26.8386 47.7357 25.8083 47.6587 24.8038Z" fill="#fff"/><path d="M21.2618 0.0258789C19.2846 0.283448 17.3587 0.798584 15.5613 1.59705C15.4072 1.67432 15.3816 1.88037 15.5099 1.9834C22.1861 6.56812 22.3917 19.3435 23.0336 35.0552C23.2133 35.0552 23.4187 35.0552 23.5985 35.0552C23.3161 14.7331 23.3161 6.74841 21.2618 0.0258789Z" fill="#fff"/><path d="M21.0298 19.6005C19.6432 10.6628 17.1268 5.76904 11.4777 3.81152C9.73155 5.04784 8.11385 6.51599 6.67589 8.21593C6.57317 8.34473 6.65022 8.55078 6.82996 8.57655C12.7102 8.80836 16.6903 12.4916 19.1554 19.9611C20.4393 23.8504 21.5691 30.1867 21.9028 35.0804C22.0827 35.0804 22.2881 35.0545 22.4677 35.0545C22.1597 28.9759 21.6974 23.7731 21.0298 19.6005Z" fill="#fff"/><path d="M3.82579 12.0799C2.4135 14.4495 1.33503 17.1025 0.616055 19.9615C0.564699 20.1676 0.821478 20.3221 0.975546 20.1676C5.41782 15.8147 13.378 16.9995 17.923 25.8342C19.592 29.0795 20.1826 31.2172 20.7475 35.1322C20.9274 35.1322 21.1328 35.1066 21.3124 35.1066C20.1313 20.9144 13.9686 9.27242 3.82579 12.0799Z" fill="#fff"/><path d="M16.023 25.3446C11.1185 19.0857 3.9544 20.2447 0.154067 24.8038C0.0513559 25.8083 0 26.8386 0 27.8945C0 30.4445 0.282456 32.9172 0.847371 35.2867C0.898727 35.4928 1.23254 35.5186 1.25822 35.3126C1.95152 30.4445 7.16413 26.3491 13.3782 27.8945C15.9203 28.5128 18.5395 30.9082 19.5922 35.2095C19.7977 35.1838 19.9774 35.1838 20.1828 35.1838C19.5152 30.8824 17.7948 27.5854 16.023 25.3446Z" fill="#fff"/></g><defs><clipPath id="clip0_305_1192"><rect width="48" height="56" fill="white"/></clipPath></defs></symbol>

    <symbol id="site-menu" viewBox="14 8 5 16.7" style="stroke-width: 0px"><defs><style>.cls-1{fill:none;}</style></defs><title/><g><path d="M28,10H4A1,1,0,0,1,4,8H28a1,1,0,0,1,0,2Z"/><path d="M28,17H4a1,1,0,0,1,0-2H28a1,1,0,0,1,0,2Z"/><path d="M28,24H4a1,1,0,0,1,0-2H28a1,1,0,0,1,0,2Z"/></g></symbol>

    <symbol id="site-bell" viewBox="0 0 16 20" style="stroke-width: 0px"><path d="M1 17C0.716667 17 0.479 16.904 0.287 16.712C0.0956668 16.5207 0 16.2833 0 16C0 15.7167 0.0956668 15.4793 0.287 15.288C0.479 15.096 0.716667 15 1 15H2V8C2 6.61667 2.41667 5.38733 3.25 4.312C4.08333 3.23733 5.16667 2.53333 6.5 2.2V1.5C6.5 1.08333 6.646 0.729333 6.938 0.438C7.22933 0.146 7.58333 0 8 0C8.41667 0 8.77067 0.146 9.062 0.438C9.354 0.729333 9.5 1.08333 9.5 1.5V2.2C10.8333 2.53333 11.9167 3.23733 12.75 4.312C13.5833 5.38733 14 6.61667 14 8V15H15C15.2833 15 15.5207 15.096 15.712 15.288C15.904 15.4793 16 15.7167 16 16C16 16.2833 15.904 16.5207 15.712 16.712C15.5207 16.904 15.2833 17 15 17H1ZM8 20C7.45 20 6.97933 19.8043 6.588 19.413C6.196 19.021 6 18.55 6 18H10C10 18.55 9.80433 19.021 9.413 19.413C9.021 19.8043 8.55 20 8 20ZM4 15H12V8C12 6.9 11.6083 5.95833 10.825 5.175C10.0417 4.39167 9.1 4 8 4C6.9 4 5.95833 4.39167 5.175 5.175C4.39167 5.95833 4 6.9 4 8V15Z" /></symbol>

    <symbol id="site-user" viewBox="0 0 40 40" style="stroke-width: 0px"><path d="M7.7 30.2C9.4 28.9 11.3 27.8747 13.4 27.124C15.5 26.3747 17.7 26 20 26C22.3 26 24.5 26.3747 26.6 27.124C28.7 27.8747 30.6 28.9 32.3 30.2C33.4667 28.8333 34.3753 27.2833 35.026 25.55C35.6753 23.8167 36 21.9667 36 20C36 15.5667 34.442 11.7913 31.326 8.674C28.2087 5.558 24.4333 4 20 4C15.5667 4 11.792 5.558 8.676 8.674C5.55867 11.7913 4 15.5667 4 20C4 21.9667 4.32533 23.8167 4.976 25.55C5.62533 27.2833 6.53333 28.8333 7.7 30.2ZM20 22C18.0333 22 16.3747 21.3253 15.024 19.976C13.6747 18.6253 13 16.9667 13 15C13 13.0333 13.6747 11.3747 15.024 10.024C16.3747 8.67467 18.0333 8 20 8C21.9667 8 23.6253 8.67467 24.976 10.024C26.3253 11.3747 27 13.0333 27 15C27 16.9667 26.3253 18.6253 24.976 19.976C23.6253 21.3253 21.9667 22 20 22ZM20 40C17.2333 40 14.6333 39.4747 12.2 38.424C9.76667 37.3747 7.65 35.95 5.85 34.15C4.05 32.35 2.62533 30.2333 1.576 27.8C0.525334 25.3667 0 22.7667 0 20C0 17.2333 0.525334 14.6333 1.576 12.2C2.62533 9.76667 4.05 7.65 5.85 5.85C7.65 4.05 9.76667 2.62467 12.2 1.574C14.6333 0.524667 17.2333 0 20 0C22.7667 0 25.3667 0.524667 27.8 1.574C30.2333 2.62467 32.35 4.05 34.15 5.85C35.95 7.65 37.3747 9.76667 38.424 12.2C39.4747 14.6333 40 17.2333 40 20C40 22.7667 39.4747 25.3667 38.424 27.8C37.3747 30.2333 35.95 32.35 34.15 34.15C32.35 35.95 30.2333 37.3747 27.8 38.424C25.3667 39.4747 22.7667 40 20 40Z"/></symbol>

    <symbol id="site-arrow" viewBox="0 0 10 7" style="stroke-width: 0px"><path d="M5 6.47901C4.88867 6.47901 4.781 6.45467 4.677 6.40601C4.573 6.35734 4.47233 6.29134 4.375 6.20801L0.625 2.45801C0.458333 2.29134 0.375 2.08301 0.375 1.83301C0.375 1.58301 0.458333 1.37467 0.625 1.20801C0.791667 1.04134 0.993 0.958008 1.229 0.958008C1.465 0.958008 1.66633 1.04134 1.833 1.20801L5 4.37501L8.167 1.20801C8.33367 1.04134 8.53833 0.958008 8.781 0.958008C9.02433 0.958008 9.22933 1.04134 9.396 1.20801C9.56267 1.37467 9.646 1.57967 9.646 1.82301C9.646 2.06634 9.56267 2.27134 9.396 2.43801L5.625 6.20801C5.54167 6.29134 5.44433 6.35734 5.333 6.40601C5.22233 6.45467 5.11133 6.47901 5 6.47901Z"/></symbol>

    <symbol id="site-edit" viewBox="0 0 16 16" style="stroke-width: 0px"><path d="M2.25 13.75H3.479L10.479 6.75L9.25 5.521L2.25 12.521V13.75ZM14.188 5.542L10.458 1.812L11.479 0.791996C11.8263 0.444663 12.2397 0.270996 12.719 0.270996C13.1983 0.270996 13.6113 0.444663 13.958 0.791996L15.208 2.042C15.5413 2.37533 15.708 2.78833 15.708 3.281C15.708 3.77433 15.5413 4.18766 15.208 4.521L14.188 5.542ZM1.375 15.5C1.139 15.5 0.934 15.4133 0.76 15.24C0.586667 15.066 0.5 14.861 0.5 14.625V12.125C0.5 12.0137 0.520667 11.906 0.562 11.802C0.604 11.698 0.666667 11.6043 0.75 11.521L9.229 3.042L12.958 6.771L4.479 15.25C4.39567 15.3333 4.302 15.396 4.198 15.438C4.094 15.4793 3.98633 15.5 3.875 15.5H1.375Z"/></symbol>

    <symbol id="site-view" viewBox="0 0 16 16" style="stroke-width: 0px"><path d="M2.25 15.5C1.764 15.5 1.35067 15.33 1.01 14.99C0.67 14.6493 0.5 14.236 0.5 13.75V2.25C0.5 1.764 0.67 1.35067 1.01 1.01C1.35067 0.67 1.764 0.5 2.25 0.5H13.75C14.236 0.5 14.6493 0.67 14.99 1.01C15.33 1.35067 15.5 1.764 15.5 2.25V13.75C15.5 14.236 15.33 14.6493 14.99 14.99C14.6493 15.33 14.236 15.5 13.75 15.5H2.25ZM2.25 13.75H13.75V2.25H2.25V13.75ZM4.688 12.167C4.924 12.167 5.12867 12.08 5.302 11.906C5.47533 11.7327 5.562 11.528 5.562 11.292V8.875C5.562 8.639 5.47533 8.434 5.302 8.26C5.12867 8.08667 4.924 8 4.688 8C4.45133 8 4.24633 8.08667 4.073 8.26C3.899 8.434 3.812 8.639 3.812 8.875V11.292C3.812 11.528 3.899 11.7327 4.073 11.906C4.24633 12.08 4.45133 12.167 4.688 12.167ZM11.312 12.167C11.5487 12.167 11.7537 12.08 11.927 11.906C12.101 11.7327 12.188 11.528 12.188 11.292V4.771C12.188 4.535 12.101 4.33 11.927 4.156C11.7537 3.98267 11.5487 3.896 11.312 3.896C11.076 3.896 10.8713 3.98267 10.698 4.156C10.5247 4.33 10.438 4.535 10.438 4.771V11.292C10.438 11.528 10.5247 11.7327 10.698 11.906C10.8713 12.08 11.076 12.167 11.312 12.167ZM8 12.167C8.236 12.167 8.441 12.08 8.615 11.906C8.78833 11.7327 8.875 11.528 8.875 11.292V10.521C8.875 10.285 8.78833 10.08 8.615 9.906C8.441 9.73267 8.236 9.646 8 9.646C7.764 9.646 7.559 9.73267 7.385 9.906C7.21167 10.08 7.125 10.285 7.125 10.521V11.292C7.125 11.528 7.21167 11.7327 7.385 11.906C7.559 12.08 7.764 12.167 8 12.167ZM8 8C8.236 8 8.441 7.91333 8.615 7.74C8.78833 7.566 8.875 7.354 8.875 7.104C8.875 6.868 8.78833 6.66667 8.615 6.5C8.441 6.33333 8.236 6.25 8 6.25C7.764 6.25 7.559 6.33667 7.385 6.51C7.21167 6.684 7.125 6.889 7.125 7.125C7.125 7.375 7.21167 7.58333 7.385 7.75C7.559 7.91667 7.764 8 8 8Z"/></symbol>

    <symbol id="site-delete" viewBox="0 0 14 16" style="stroke-width: 0px"><path d="M2.896 15.5C2.41 15.5 1.99666 15.33 1.656 14.99C1.316 14.6493 1.146 14.236 1.146 13.75V3.125C0.909996 3.125 0.704996 3.03833 0.530996 2.865C0.357663 2.691 0.270996 2.486 0.270996 2.25C0.270996 2.014 0.357663 1.809 0.530996 1.635C0.704996 1.46167 0.909996 1.375 1.146 1.375H4.521C4.521 1.139 4.60766 0.934 4.781 0.76C4.955 0.586667 5.16 0.5 5.396 0.5H8.583C8.81966 0.5 9.02466 0.586667 9.198 0.76C9.37133 0.934 9.458 1.139 9.458 1.375H12.833C13.0697 1.375 13.2747 1.46167 13.448 1.635C13.6213 1.809 13.708 2.014 13.708 2.25C13.708 2.486 13.6213 2.691 13.448 2.865C13.2747 3.03833 13.0697 3.125 12.833 3.125V13.75C12.833 14.236 12.663 14.6493 12.323 14.99C11.9823 15.33 11.569 15.5 11.083 15.5H2.896ZM2.896 3.125V13.75H11.083V3.125H2.896ZM4.458 11.125C4.458 11.361 4.545 11.566 4.719 11.74C4.89233 11.9133 5.097 12 5.333 12C5.56966 12 5.77466 11.9133 5.948 11.74C6.12133 11.566 6.208 11.361 6.208 11.125V5.75C6.208 5.514 6.12133 5.309 5.948 5.135C5.77466 4.96167 5.56966 4.875 5.333 4.875C5.097 4.875 4.89233 4.96167 4.719 5.135C4.545 5.309 4.458 5.514 4.458 5.75V11.125ZM7.771 11.125C7.771 11.361 7.85766 11.566 8.031 11.74C8.205 11.9133 8.41 12 8.646 12C8.882 12 9.08666 11.9133 9.26 11.74C9.434 11.566 9.521 11.361 9.521 11.125V5.75C9.521 5.514 9.434 5.309 9.26 5.135C9.08666 4.96167 8.882 4.875 8.646 4.875C8.41 4.875 8.205 4.96167 8.031 5.135C7.85766 5.309 7.771 5.514 7.771 5.75V11.125Z"/></symbol>

    <symbol id="site-filter" viewBox="0 0 14 13" style="stroke-width: 0px"><path d="M6.5002 12.5C6.36154 12.5 6.24354 12.4513 6.1462 12.354C6.04887 12.2567 6.0002 12.1387 6.0002 12V7.271L1.1042 1.312C0.979538 1.14533 0.962205 0.968333 1.0522 0.781C1.14287 0.593667 1.2922 0.5 1.5002 0.5H12.5002C12.7082 0.5 12.8575 0.593667 12.9482 0.781C13.0382 0.968333 13.0209 1.14533 12.8962 1.312L8.0002 7.271V12C8.0002 12.1387 7.95154 12.2567 7.8542 12.354C7.75687 12.4513 7.63887 12.5 7.5002 12.5H6.5002ZM7.0002 6.125L10.3752 2H3.6042L7.0002 6.125Z"/></symbol>

    <symbol id="site-revert" viewBox="0 0 16 14" style="stroke-width: 0px"><path d="M5 13.5L3.938 12.438L6.125 10.25H0V8.75H6.125L3.938 6.562L5 5.5L9 9.5L5 13.5ZM11 8.5L7 4.5L11 0.5L12.062 1.562L9.875 3.75H16V5.25H9.875L12.062 7.438L11 8.5Z" /></symbol>

    <symbol id="site-status_1" viewBox="0 0 16 16" style="stroke-width: 0px"><path d="M6.938 11L11.896 6.062L10.833 5L6.938 8.875L5.167 7.125L4.104 8.188L6.938 11ZM8 16C6.90267 16 5.868 15.7917 4.896 15.375C3.924 14.9583 3.07333 14.3853 2.344 13.656C1.61467 12.9267 1.04167 12.076 0.625 11.104C0.208333 10.132 0 9.09733 0 8C0 6.88867 0.208333 5.85033 0.625 4.885C1.04167 3.92033 1.61467 3.07333 2.344 2.344C3.07333 1.61467 3.924 1.04167 4.896 0.625C5.868 0.208333 6.90267 0 8 0C9.11133 0 10.1497 0.208333 11.115 0.625C12.0797 1.04167 12.9267 1.61467 13.656 2.344C14.3853 3.07333 14.9583 3.92033 15.375 4.885C15.7917 5.85033 16 6.88867 16 8C16 9.09733 15.7917 10.132 15.375 11.104C14.9583 12.076 14.3853 12.9267 13.656 13.656C12.9267 14.3853 12.0797 14.9583 11.115 15.375C10.1497 15.7917 9.11133 16 8 16Z" fill="#33CC80"/></symbol>

    <symbol id="site-status_2" viewBox="0 0 16 16" style="stroke-width: 0px"><path d="M8 13C9.38867 13 10.5693 12.514 11.542 11.542C12.514 10.5693 13 9.38867 13 8C13 6.61133 12.514 5.43067 11.542 4.458C10.5693 3.486 9.38867 3 8 3V8L4.458 11.542C4.91667 11.986 5.448 12.34 6.052 12.604C6.656 12.868 7.30533 13 8 13ZM8 16C6.90267 16 5.868 15.7917 4.896 15.375C3.924 14.9583 3.07333 14.3853 2.344 13.656C1.61467 12.9267 1.04167 12.076 0.625 11.104C0.208333 10.132 0 9.09733 0 8C0 6.88867 0.208333 5.85033 0.625 4.885C1.04167 3.92033 1.61467 3.07333 2.344 2.344C3.07333 1.61467 3.924 1.04167 4.896 0.625C5.868 0.208333 6.90267 0 8 0C9.11133 0 10.1497 0.208333 11.115 0.625C12.0797 1.04167 12.9267 1.61467 13.656 2.344C14.3853 3.07333 14.9583 3.92033 15.375 4.885C15.7917 5.85033 16 6.88867 16 8C16 9.09733 15.7917 10.132 15.375 11.104C14.9583 12.076 14.3853 12.9267 13.656 13.656C12.9267 14.3853 12.0797 14.9583 11.115 15.375C10.1497 15.7917 9.11133 16 8 16ZM8 14.5C9.80533 14.5 11.34 13.868 12.604 12.604C13.868 11.34 14.5 9.80533 14.5 8C14.5 6.19467 13.868 4.66 12.604 3.396C11.34 2.132 9.80533 1.5 8 1.5C6.19467 1.5 4.66 2.132 3.396 3.396C2.132 4.66 1.5 6.19467 1.5 8C1.5 9.80533 2.132 11.34 3.396 12.604C4.66 13.868 6.19467 14.5 8 14.5Z" fill="#FFBF00"/></symbol>

    <symbol id="site-status_3" viewBox="0 0 18 18" style="stroke-width: 0px"><path d="M5.41797 12.583C5.58464 12.7497 5.78597 12.833 6.02197 12.833C6.25797 12.833 6.4593 12.7497 6.62597 12.583L9.00097 10.208L11.376 12.583C11.5426 12.7497 11.744 12.833 11.98 12.833C12.216 12.833 12.4243 12.7497 12.605 12.583C12.7716 12.4023 12.8516 12.194 12.845 11.958C12.8376 11.722 12.7506 11.5207 12.584 11.354L10.23 8.99999L12.605 6.62499C12.7716 6.45833 12.855 6.25699 12.855 6.02099C12.855 5.78499 12.7716 5.57666 12.605 5.39599C12.4243 5.22933 12.216 5.14599 11.98 5.14599C11.744 5.14599 11.5426 5.22933 11.376 5.39599L9.00097 7.77099L6.60497 5.37499C6.4523 5.22233 6.25797 5.14599 6.02197 5.14599C5.78597 5.14599 5.58464 5.22933 5.41797 5.39599C5.2513 5.56266 5.16797 5.76399 5.16797 5.99999C5.16797 6.23599 5.2513 6.43733 5.41797 6.60399L7.79297 8.99999L5.39697 11.396C5.2443 11.5487 5.16797 11.743 5.16797 11.979C5.16797 12.215 5.2513 12.4163 5.41797 12.583ZM9.00097 17.333C7.8483 17.333 6.76497 17.1143 5.75097 16.677C4.73697 16.2397 3.85497 15.646 3.10497 14.896C2.35497 14.146 1.7613 13.264 1.32397 12.25C0.886635 11.236 0.667969 10.1527 0.667969 8.99999C0.667969 7.84733 0.886635 6.76399 1.32397 5.74999C1.7613 4.73599 2.35497 3.85399 3.10497 3.10399C3.85497 2.35399 4.73697 1.76033 5.75097 1.32299C6.76497 0.885659 7.8483 0.666992 9.00097 0.666992C10.1536 0.666992 11.237 0.885659 12.251 1.32299C13.265 1.76033 14.147 2.35399 14.897 3.10399C15.647 3.85399 16.2406 4.73599 16.678 5.74999C17.1153 6.76399 17.334 7.84733 17.334 8.99999C17.334 10.1527 17.1153 11.236 16.678 12.25C16.2406 13.264 15.647 14.146 14.897 14.896C14.147 15.646 13.265 16.2397 12.251 16.677C11.237 17.1143 10.1536 17.333 9.00097 17.333Z" fill="#F25749"/></symbol>

    <symbol id="site-attached" viewBox="0 0 10 16" style="stroke-width: 0px"><path d="M4.83398 16C3.55598 16 2.48665 15.545 1.62598 14.635C0.764651 13.7257 0.333984 12.639 0.333984 11.375V3.271C0.333984 2.36833 0.649984 1.59733 1.28198 0.958C1.91398 0.319333 2.68132 0 3.58398 0C4.51465 0 5.28898 0.336667 5.90698 1.01C6.52498 1.684 6.83398 2.47933 6.83398 3.396V11.021C6.83398 11.5763 6.63598 12.045 6.23998 12.427C5.84398 12.809 5.37532 13 4.83398 13C4.25065 13 3.77132 12.7917 3.39598 12.375C3.02132 11.9583 2.83398 11.4723 2.83398 10.917V3H4.33398V11.021C4.33398 11.1597 4.38265 11.2777 4.47998 11.375C4.57732 11.4723 4.69532 11.521 4.83398 11.521C4.97265 11.521 5.09065 11.4723 5.18798 11.375C5.28532 11.2777 5.33398 11.1597 5.33398 11.021V3.271C5.33398 2.785 5.16398 2.36833 4.82398 2.021C4.48332 1.67367 4.06998 1.5 3.58398 1.5C3.09798 1.5 2.68465 1.677 2.34398 2.031C2.00398 2.385 1.83398 2.812 1.83398 3.312V11.521C1.83398 12.3543 2.12898 13.059 2.71898 13.635C3.30965 14.2117 4.01465 14.5 4.83398 14.5C5.69532 14.5 6.41065 14.1943 6.97998 13.583C7.54932 12.9723 7.83398 12.2503 7.83398 11.417V3H9.33398V11.521C9.33398 12.771 8.89998 13.83 8.03198 14.698C7.16398 15.566 6.09798 16 4.83398 16Z"/></symbol>

    <symbol id="site-download" viewBox="0 0 24 24" style="stroke-width: 0px"><g id="Layer_2" data-name="Layer 2"><g id="download"><g id="download-2" data-name="download"><rect class="cls-1" width="24" height="24"/><rect class="cls-2" x="4" y="18" width="16" height="2" rx="1" ry="1"/><rect class="cls-2" x="3" y="17" width="4" height="2" rx="1" ry="1" transform="translate(-13 23) rotate(-90)"/><rect class="cls-2" x="17" y="17" width="4" height="2" rx="1" ry="1" transform="translate(1 37) rotate(-90)"/><path class="cls-2" d="M12,15a1,1,0,0,1-.58-.18L7.42,12a1,1,0,0,1-.24-1.39,1,1,0,0,1,1.4-.24L12,12.76,15.4,10.2a1,1,0,0,1,1.2,1.6l-4,3A1,1,0,0,1,12,15Z"/><path class="cls-2" d="M12,13a1,1,0,0,1-1-1V4a1,1,0,0,1,2,0v8A1,1,0,0,1,12,13Z"/></g></g></g></symbol>

    <symbol id="site-ellipsis" viewBox="0 0 408 408" style="stroke-width: 0px"><path d="M51,153c-28.05,0-51,22.95-51,51s22.95,51,51,51s51-22.95,51-51S79.05,153,51,153z M357,153c-28.05,0-51,22.95-51,51 s22.95,51,51,51s51-22.95,51-51S385.05,153,357,153z M204,153c-28.05,0-51,22.95-51,51s22.95,51,51,51s51-22.95,51-51 S232.05,153,204,153z"/></symbol>

    <symbol id="site-hidepassword" viewBox="0 0 50 50" style="stroke-width: 0px"><path xmlns="http://www.w3.org/2000/svg" d="M 25 4 C 18.9375 4 14 8.9375 14 15 L 14 20.84375 C 11.527344 23.519531 10 27.078125 10 31 C 10 39.273438 16.726563 46 25 46 C 33.273438 46 40 39.273438 40 31 C 40 27.078125 38.472656 23.519531 36 20.84375 L 36 15 C 36 8.9375 31.0625 4 25 4 Z M 25 6 C 29.984375 6 34 10.015625 34 15 L 34 19.03125 C 31.488281 17.136719 28.378906 16 25 16 C 21.621094 16 18.511719 17.136719 16 19.03125 L 16 15 C 16 10.015625 20.015625 6 25 6 Z M 25 18 C 32.191406 18 38 23.808594 38 31 C 38 38.191406 32.191406 44 25 44 C 17.808594 44 12 38.191406 12 31 C 12 23.808594 17.808594 18 25 18 Z M 25 28 C 23.34375 28 22 29.34375 22 31 C 22 32.300781 22.839844 33.398438 24 33.8125 L 24 36 C 24 36.550781 24.449219 37 25 37 C 25.550781 37 26 36.550781 26 36 L 26 33.8125 C 27.160156 33.398438 28 32.300781 28 31 C 28 29.34375 26.65625 28 25 28 Z"/></symbol>

    <symbol id="site-showpassword" viewBox="0 0 50 50" style="stroke-width: 0px"><path xmlns="http://www.w3.org/2000/svg" d="M 25 4 C 18.9375 4 14 8.9375 14 15 L 14 20.84375 C 11.527344 23.519531 10 27.078125 10 31 C 10 39.273438 16.726563 46 25 46 C 33.273438 46 40 39.273438 40 31 C 40 22.726563 33.273438 16 25 16 C 21.621094 16 18.511719 17.136719 16 19.03125 L 16 15 C 16 10.015625 20.015625 6 25 6 C 29.382813 6 33.027344 9.121094 33.84375 13.25 C 33.867188 13.640625 34.121094 13.980469 34.484375 14.121094 C 34.851563 14.261719 35.265625 14.175781 35.542969 13.898438 C 35.824219 13.625 35.914063 13.210938 35.78125 12.84375 C 34.78125 7.792969 30.332031 4 25 4 Z M 25 18 C 32.191406 18 38 23.808594 38 31 C 38 38.191406 32.191406 44 25 44 C 17.808594 44 12 38.191406 12 31 C 12 23.808594 17.808594 18 25 18 Z M 25 28 C 23.34375 28 22 29.34375 22 31 C 22 32.300781 22.839844 33.398438 24 33.8125 L 24 37 L 26 37 L 26 33.8125 C 27.160156 33.398438 28 32.300781 28 31 C 28 29.34375 26.65625 28 25 28 Z"/></symbol>

    <symbol id="site-generatepassword" viewBox="0 0 50 50" style="stroke-width: 0px"><path xmlns="http://www.w3.org/2000/svg" d="M 15 0 C 6.730469 0 0 6.730469 0 15 C 0 23.269531 6.730469 30 15 30 C 16.394531 30 17.738281 29.792969 19.019531 29.4375 L 19.292969 29.707031 L 24.585938 35 L 29 35 L 29 40 L 34 40 L 34 45 L 39 45 L 39 50 L 46.414063 50 L 50 46.414063 L 50 45.792969 L 47.890625 38.472656 L 29.707031 20.292969 L 29.203125 19.785156 C 29.710938 18.28125 30 16.675781 30 15 C 30 6.730469 23.269531 0 15 0 Z M 15 2 C 22.1875 2 28 7.8125 28 15 C 28 22.1875 22.1875 28 15 28 C 7.8125 28 2 22.1875 2 15 C 2 7.8125 7.8125 2 15 2 Z M 12.5 7 C 10.027344 7 8 9.027344 8 11.5 C 7.996094 13.972656 10.027344 16 12.5 16 C 14.972656 16 17 13.972656 17 11.5 C 17 9.027344 14.972656 6.996094 12.5 7 Z M 12.5 9 C 13.894531 8.996094 15 10.105469 15 11.5 C 15 12.894531 13.894531 14 12.5 14 C 11.105469 14 9.996094 12.894531 10 11.5 C 10 10.105469 11.105469 9 12.5 9 Z M 28.363281 21.777344 L 46.109375 39.527344 L 47.394531 43.984375 L 31.707031 28.292969 L 31 27.585938 L 29.585938 29 L 47.085938 46.5 L 45.585938 48 L 41 48 L 41 43 L 36 43 L 36 38 L 31 38 L 31 33 L 25.414063 33 L 21.101563 28.6875 C 24.242188 27.28125 26.808594 24.832031 28.363281 21.777344 Z"/></symbol>

    <symbol id="site-tariff" viewBox="0 0 32 32" style="stroke-width: 0px"><path xmlns="http://www.w3.org/2000/svg" d="M 21.222656 3 C 20.710693 3 20.19873 3.1953125 19.808594 3.5859375 C 19.027344 4.3666992 19.027344 5.6333008 19.808594 6.4140625 L 24.171875 10.777344 L 11.623047 10.777344 C 5.765625 10.777344 1 15.542969 1 21.400391 L 1 27 C 1 28.104492 1.8955078 29 3 29 C 4.1044922 29 5 28.104492 5 27 L 5 21.400391 C 5 17.748535 7.9711914 14.777344 11.623047 14.777344 L 24.171875 14.777344 L 19.808594 19.142578 C 19.027344 19.92334 19.027344 21.189941 19.808594 21.970703 C 20.19873 22.361328 20.710937 22.556641 21.222656 22.556641 C 21.734375 22.556641 22.246094 22.361328 22.636719 21.970703 L 30.402344 14.203125 L 30.414062 14.193359 C 30.414418 14.193004 30.413708 14.191762 30.414062 14.191406 C 30.505483 14.099986 30.586963 14.002181 30.658203 13.896484 C 30.658695 13.895756 30.659665 13.89526 30.660156 13.894531 C 30.684074 13.858939 30.699173 13.818209 30.720703 13.78125 C 30.766039 13.703681 30.812923 13.626735 30.847656 13.542969 C 30.896589 13.424957 30.933273 13.301963 30.958984 13.173828 C 30.959247 13.172518 30.960677 13.171233 30.960938 13.169922 C 30.986572 13.041794 31 12.909912 31 12.777344 C 31 12.64333 30.986079 12.513353 30.960938 12.386719 C 30.960654 12.385304 30.95927 12.384227 30.958984 12.382812 C 30.933273 12.254665 30.896593 12.131694 30.847656 12.013672 C 30.812923 11.929905 30.766039 11.85296 30.720703 11.775391 C 30.699177 11.738439 30.684069 11.697695 30.660156 11.662109 C 30.659648 11.661353 30.658713 11.660912 30.658203 11.660156 C 30.586317 11.553755 30.504547 11.453766 30.414062 11.363281 L 22.636719 3.5859375 C 22.246582 3.1953125 21.734619 3 21.222656 3 z"/></symbol>
    
    <symbol id="site-plus" viewBox="0 0 612 612" style="stroke-width: 0px"><path d="M554.625,248.625h-191.25V57.375C363.375,25.685,337.69,0,306,0c-31.69,0-57.375,25.685-57.375,57.375v191.25H57.375 C25.685,248.625,0,274.31,0,306c0,31.69,25.685,57.375,57.375,57.375h191.25v191.25C248.625,586.315,274.31,612,306,612 c31.69,0,57.375-25.685,57.375-57.375v-191.25h191.25C586.315,363.375,612,337.69,612,306 C612,274.31,586.315,248.625,554.625,248.625z"/></symbol>
    
    <symbol id="site-plus2" viewBox="0 0 20 20"><path d="M9.16675 15.8332V10.8332H4.16675V9.1665H9.16675V4.1665H10.8334V9.1665H15.8334V10.8332H10.8334V15.8332H9.16675Z"/></symbol>
    
    <symbol id="site-create" viewBox="0 0 20 20"><path d="M11.6667 13.3333H13.3333V10.8333H15.8333V9.16667H13.3333V6.66667H11.6667V9.16667H9.16667V10.8333H11.6667V13.3333ZM5 17.0833C3.48611 16.5556 2.27431 15.6424 1.36458 14.3438C0.454861 13.0451 0 11.5972 0 10C0 8.40278 0.454861 6.95486 1.36458 5.65625C2.27431 4.35764 3.48611 3.44444 5 2.91667V4.75C3.97222 5.23611 3.15972 5.95139 2.5625 6.89583C1.96528 7.84028 1.66667 8.875 1.66667 10C1.66667 11.125 1.96528 12.1597 2.5625 13.1042C3.15972 14.0486 3.97222 14.7639 5 15.25V17.0833ZM12.5 17.5C11.4583 17.5 10.4826 17.3021 9.57292 16.9062C8.66319 16.5104 7.87153 15.9757 7.19792 15.3021C6.52431 14.6285 5.98958 13.8368 5.59375 12.9271C5.19792 12.0174 5 11.0417 5 10C5 8.95833 5.19792 7.98264 5.59375 7.07292C5.98958 6.16319 6.52431 5.37153 7.19792 4.69792C7.87153 4.02431 8.66319 3.48958 9.57292 3.09375C10.4826 2.69792 11.4583 2.5 12.5 2.5C13.5417 2.5 14.5174 2.69792 15.4271 3.09375C16.3368 3.48958 17.1285 4.02431 17.8021 4.69792C18.4757 5.37153 19.0104 6.16319 19.4062 7.07292C19.8021 7.98264 20 8.95833 20 10C20 11.0417 19.8021 12.0174 19.4062 12.9271C19.0104 13.8368 18.4757 14.6285 17.8021 15.3021C17.1285 15.9757 16.3368 16.5104 15.4271 16.9062C14.5174 17.3021 13.5417 17.5 12.5 17.5ZM12.5 15.8333C14.125 15.8333 15.5035 15.2674 16.6354 14.1354C17.7674 13.0035 18.3333 11.625 18.3333 10C18.3333 8.375 17.7674 6.99653 16.6354 5.86458C15.5035 4.73264 14.125 4.16667 12.5 4.16667C10.875 4.16667 9.49653 4.73264 8.36458 5.86458C7.23264 6.99653 6.66667 8.375 6.66667 10C6.66667 11.625 7.23264 13.0035 8.36458 14.1354C9.49653 15.2674 10.875 15.8333 12.5 15.8333Z"/></symbol>
    
    <symbol id="site-calendar" viewBox="0 0 20 20"><path d="M4.16667 18.3332C3.70833 18.3332 3.31597 18.17 2.98958 17.8436C2.66319 17.5172 2.5 17.1248 2.5 16.6665V4.99984C2.5 4.5415 2.66319 4.14914 2.98958 3.82275C3.31597 3.49637 3.70833 3.33317 4.16667 3.33317H5V1.6665H6.66667V3.33317H13.3333V1.6665H15V3.33317H15.8333C16.2917 3.33317 16.684 3.49637 17.0104 3.82275C17.3368 4.14914 17.5 4.5415 17.5 4.99984V16.6665C17.5 17.1248 17.3368 17.5172 17.0104 17.8436C16.684 18.17 16.2917 18.3332 15.8333 18.3332H4.16667ZM4.16667 16.6665H15.8333V8.33317H4.16667V16.6665ZM4.16667 6.6665H15.8333V4.99984H4.16667V6.6665Z"/></symbol>
    
    <symbol id="site-clear_input" viewBox="0 0 20 20"><path d="M6.99984 14.1665L9.99984 11.1665L12.9998 14.1665L14.1665 12.9998L11.1665 9.99984L14.1665 6.99984L12.9998 5.83317L9.99984 8.83317L6.99984 5.83317L5.83317 6.99984L8.83317 9.99984L5.83317 12.9998L6.99984 14.1665ZM9.99984 18.3332C8.84706 18.3332 7.76373 18.1144 6.74984 17.6769C5.73595 17.2394 4.854 16.6457 4.104 15.8957C3.354 15.1457 2.76025 14.2637 2.32275 13.2498C1.88525 12.2359 1.6665 11.1526 1.6665 9.99984C1.6665 8.84706 1.88525 7.76373 2.32275 6.74984C2.76025 5.73595 3.354 4.854 4.104 4.104C4.854 3.354 5.73595 2.76025 6.74984 2.32275C7.76373 1.88525 8.84706 1.6665 9.99984 1.6665C11.1526 1.6665 12.2359 1.88525 13.2498 2.32275C14.2637 2.76025 15.1457 3.354 15.8957 4.104C16.6457 4.854 17.2394 5.73595 17.6769 6.74984C18.1144 7.76373 18.3332 8.84706 18.3332 9.99984C18.3332 11.1526 18.1144 12.2359 17.6769 13.2498C17.2394 14.2637 16.6457 15.1457 15.8957 15.8957C15.1457 16.6457 14.2637 17.2394 13.2498 17.6769C12.2359 18.1144 11.1526 18.3332 9.99984 18.3332ZM9.99984 16.6665C11.8609 16.6665 13.4373 16.0207 14.729 14.729C16.0207 13.4373 16.6665 11.8609 16.6665 9.99984C16.6665 8.13873 16.0207 6.56234 14.729 5.27067C13.4373 3.979 11.8609 3.33317 9.99984 3.33317C8.13873 3.33317 6.56234 3.979 5.27067 5.27067C3.979 6.56234 3.33317 8.13873 3.33317 9.99984C3.33317 11.8609 3.979 13.4373 5.27067 14.729C6.56234 16.0207 8.13873 16.6665 9.99984 16.6665Z"/></symbol>

    <symbol id="site-check" viewBox="0 0 48 48" style="stroke-width: 0px"><path d="M40.6 12.1L17 35.7 7.4 26.1 4.6 29 17 41.3 43.4 14.9z"/></symbol>
</svg>
